<svg width="26" height="24" viewBox="0 0 26 24" fill="none" xmlns="http://www.w3.org/2000/svg">
<path d="M7.69458 15.2733C8.25564 15.2733 8.71046 14.8185 8.71046 14.2574C8.71046 13.6964 8.25564 13.2416 7.69458 13.2416C7.13353 13.2416 6.67871 13.6964 6.67871 14.2574C6.67871 14.8185 7.13353 15.2733 7.69458 15.2733Z" fill="#6D6E73"/>
<path d="M11.1936 15.2733C11.7547 15.2733 12.2095 14.8185 12.2095 14.2574C12.2095 13.6964 11.7547 13.2416 11.1936 13.2416C10.6326 13.2416 10.1777 13.6964 10.1777 14.2574C10.1777 14.8185 10.6326 15.2733 11.1936 15.2733Z" fill="#6D6E73"/>
<path d="M14.636 15.2733C15.197 15.2733 15.6519 14.8185 15.6519 14.2574C15.6519 13.6964 15.197 13.2416 14.636 13.2416C14.0749 13.2416 13.6201 13.6964 13.6201 14.2574C13.6201 14.8185 14.0749 15.2733 14.636 15.2733Z" fill="#6D6E73"/>
<path d="M18.7278 11.097V17.1076C18.7278 17.8131 18.1634 18.3775 17.4579 18.3775H11.9271L8.23041 21.2276V18.4057H4.70307C3.99761 18.4057 3.43323 17.8413 3.43323 17.1358V11.097H2.24805V17.1076C2.24805 18.4621 3.34858 19.5627 4.73129 19.5627H7.04522L7.07344 23.739L12.4068 19.5627H17.4861C18.8406 19.5627 19.9694 18.4621 19.9694 17.1076V11.097H18.7278Z" fill="#6D6E73"/>
<path d="M20.4776 12.0564H16.5834C15.7369 12.0564 15.0314 11.351 15.0314 10.5044V8.75485C11.8991 8.27514 10.2624 8.27514 7.15839 8.75485V10.5044C7.15839 11.351 6.45293 12.0564 5.60636 12.0564H1.71218C0.865624 12.0564 0.160156 11.351 0.160156 10.5044V8.81129C0.160156 6.63845 1.62753 4.7478 3.68749 4.21164C9.02083 2.80071 13.1408 2.80071 18.4741 4.21164C20.5623 4.7478 22.0014 6.66667 22.0014 8.81129V10.5044C22.0014 11.3792 21.3242 12.0564 20.4776 12.0564ZM11.8427 7.20283C13.6487 7.20283 13.9309 7.34392 15.7087 7.65432L16.2166 7.73898V10.5044C16.2166 10.7019 16.3859 10.843 16.5552 10.843H20.4494C20.6469 10.843 20.788 10.6737 20.788 10.5044V8.81129C20.788 7.20283 19.6875 5.76367 18.1355 5.36861C12.9997 4.01411 9.10548 4.01411 3.96968 5.36861C2.41765 5.79189 1.31712 7.20283 1.31712 8.81129V10.5044C1.31712 10.7019 1.48643 10.843 1.65575 10.843H5.54993C5.74746 10.843 5.88855 10.6737 5.88855 10.5044V7.73898L6.39649 7.65432C8.2307 7.37214 10.0367 7.20283 11.8427 7.20283Z" fill="#F8920A"/>
<path d="M23.4972 6.35624H22.3685C22.3685 4.91708 21.1833 3.7319 19.7441 3.7319V2.60315C21.8323 2.63137 23.4972 4.29627 23.4972 6.35624Z" fill="#6D6E73"/>
<path d="M25.8395 6.29978H24.7107C24.7107 3.56257 22.4815 1.36151 19.7725 1.36151V0.23276C23.1023 0.204541 25.8395 2.94176 25.8395 6.29978Z" fill="#6D6E73"/>
</svg>
