<svg width="24" height="24" viewBox="0 0 24 24" fill="none" xmlns="http://www.w3.org/2000/svg">
<path d="M11.6308 3.58424L9.78952 3.10436C9.39624 2.99962 8.98617 2.97339 8.58275 3.02716C8.17933 3.08094 7.79046 3.21366 7.43839 3.41775C7.08632 3.62183 6.77793 3.89328 6.53088 4.21657C6.28382 4.53985 6.10293 4.90864 5.99856 5.30185L5.53896 7.03702C7.05459 5.15147 9.23391 3.91626 11.6308 3.58424Z" fill="#26272B"/>
<path d="M3.55441 14.5073L3.10359 16.2073C2.89286 17.0008 3.00609 17.8455 3.41837 18.5556C3.83065 19.2656 4.50823 19.7829 5.30206 19.9937L7.05849 20.4619C5.18301 18.988 3.9319 16.8619 3.55441 14.5073Z" fill="#26272B"/>
<path d="M20.6965 5.99837L18.7264 5.4746C19.7219 6.24003 20.5554 7.19547 21.1785 8.28547C21.8017 9.37546 22.202 10.5783 22.3563 11.8242L22.8979 9.77595C23.1059 8.98327 22.991 8.14049 22.5783 7.43238C22.1656 6.72426 21.4889 6.20857 20.6965 5.99837Z" fill="#26272B"/>
<path d="M14.3241 22.3872L16.2122 22.8964C17.0061 23.107 17.8511 22.9938 18.5615 22.5817C19.2719 22.1696 19.7894 21.4923 20.0003 20.6989L20.533 18.6974C19.0309 20.6973 16.7994 22.0234 14.3241 22.3872Z" fill="#26272B"/>
<path d="M13.0009 4.32763C11.2852 4.32705 9.60796 4.83505 8.18117 5.78737C6.75438 6.73969 5.64217 8.09355 4.98522 9.67774C4.32827 11.2619 4.15608 13.0053 4.49043 14.6873C4.82478 16.3693 5.65066 17.9144 6.8636 19.1272C8.07654 20.34 9.62206 21.1661 11.3047 21.5008C12.9873 21.8356 14.7315 21.6641 16.3166 21.008C17.9017 20.3518 19.2566 19.2406 20.2098 17.8147C21.163 16.3889 21.6718 14.7125 21.6718 12.9976C21.6718 10.6987 20.7584 8.49391 19.1323 6.86805C17.5063 5.24219 15.3008 4.32841 13.0009 4.32763ZM8.08874 8.65239C8.18148 8.17171 8.41473 7.72931 8.75899 7.38112C9.10324 7.03293 9.54305 6.79458 10.0228 6.6962C10.5026 6.59783 11.0008 6.64385 11.4544 6.82844C11.908 7.01303 12.2966 7.32791 12.5712 7.73327C12.8458 8.13863 12.994 8.61626 12.997 9.10579C13.0001 9.59532 12.8578 10.0748 12.5883 10.4835C12.3188 10.8922 11.9341 11.2119 11.4828 11.4021C11.0315 11.5923 10.534 11.6446 10.053 11.5521C9.73351 11.4908 9.42923 11.367 9.15757 11.1881C8.88592 11.0091 8.6522 10.7784 8.46979 10.5091C8.28737 10.2398 8.15983 9.93721 8.09445 9.61863C8.02907 9.30005 8.02713 8.97172 8.08874 8.65239ZM11.6923 16.1432C11.5989 16.6237 11.3651 17.0657 11.0204 17.4134C10.6758 17.7611 10.2357 17.9989 9.75584 18.0966C9.27599 18.1944 8.77793 18.1478 8.3246 17.9626C7.87127 17.7775 7.48302 17.4622 7.20893 17.0566C6.93484 16.6509 6.78721 16.1732 6.78471 15.6837C6.78221 15.1942 6.92494 14.715 7.19487 14.3066C7.46479 13.8981 7.8498 13.5789 8.30121 13.3891C8.75262 13.1994 9.25019 13.1477 9.731 13.2405C10.0505 13.3022 10.3548 13.4263 10.6263 13.6056C10.8979 13.7849 11.1314 14.0159 11.3136 14.2855C11.4957 14.5551 11.6229 14.8579 11.6879 15.1767C11.7529 15.4954 11.7544 15.8238 11.6923 16.1432ZM12.7433 14.1388C12.5298 14.0975 12.3334 13.994 12.1787 13.8413C12.0241 13.6885 11.9181 13.4934 11.8743 13.2806C11.8304 13.0677 11.8506 12.8467 11.9323 12.6453C12.014 12.4439 12.1535 12.2712 12.3332 12.1489C12.513 12.0267 12.7249 11.9604 12.9423 11.9585C13.1597 11.9565 13.3729 12.0189 13.5548 12.1379C13.7368 12.2568 13.8794 12.427 13.9647 12.6268C14.05 12.8267 14.0742 13.0474 14.0343 13.261C14.0076 13.4036 13.9529 13.5394 13.8735 13.6608C13.7941 13.7822 13.6914 13.8867 13.5714 13.9683C13.4515 14.0499 13.3165 14.107 13.1744 14.1362C13.0323 14.1655 12.8857 14.1664 12.7433 14.1388ZM17.9101 17.337C17.8174 17.8177 17.5841 18.2601 17.2399 18.6083C16.8956 18.9565 16.4558 19.1948 15.976 19.2932C15.4963 19.3916 14.9981 19.3456 14.5445 19.161C14.0909 18.9764 13.7022 18.6615 13.4277 18.2562C13.1531 17.8508 13.0049 17.3732 13.0018 16.8836C12.9988 16.3941 13.141 15.9147 13.4105 15.5059C13.6801 15.0972 14.0648 14.7775 14.5161 14.5873C14.9673 14.3971 15.4649 14.3449 15.9458 14.4373C16.2653 14.4987 16.5696 14.6224 16.8413 14.8013C17.1129 14.9803 17.3466 15.211 17.5291 15.4803C17.7115 15.7496 17.839 16.0522 17.9044 16.3708C17.9698 16.6894 17.9717 17.0177 17.9101 17.337ZM16.2708 12.7489C15.7899 12.6562 15.3473 12.4231 14.9989 12.079C14.6506 11.7349 14.4121 11.2952 14.3137 10.8157C14.2153 10.3361 14.2613 9.83819 14.446 9.38479C14.6307 8.93139 14.9457 8.5429 15.3512 8.26844C15.7568 7.99397 16.2346 7.84586 16.7244 7.84281C17.2141 7.83977 17.6938 7.98194 18.1027 8.25134C18.5116 8.52075 18.8314 8.90529 19.0217 9.35636C19.212 9.80743 19.2643 10.3048 19.1718 10.7855C19.1107 11.1051 18.9872 11.4096 18.8083 11.6815C18.6294 11.9533 18.3986 12.1873 18.1292 12.3699C17.8597 12.5525 17.5569 12.6803 17.238 12.7458C16.9191 12.8113 16.5905 12.8134 16.2708 12.7518V12.7489Z" fill="#26272B"/>
</svg>
