<svg width="32" height="32" viewBox="0 0 32 32" fill="none" xmlns="http://www.w3.org/2000/svg">
<circle cx="16" cy="16" r="15" stroke="white" stroke-width="2"/>
<path d="M22.4275 15.3893H16.0725V8.61069C16.0725 8.24427 15.8435 8 15.5 8C15.1565 8 14.9275 8.24427 14.9275 8.61069V15.3893H8.57252C8.22901 15.3893 8 15.6336 8 16C8 16.3664 8.22901 16.6107 8.57252 16.6107H14.9275V23.3893C14.9275 23.7557 15.1565 24 15.5 24C15.8435 24 16.0725 23.7557 16.0725 23.3893V16.6107H22.4275C22.771 16.6107 23 16.3664 23 16C23 15.6336 22.771 15.3893 22.4275 15.3893Z" fill="white"/>
</svg>
