<svg width="24" height="24" viewBox="0 0 24 24" fill="none" xmlns="http://www.w3.org/2000/svg">
<path d="M8.42274 3C5.35941 3 2.86719 5.49222 2.86719 8.55556V17.4444C2.86719 20.5078 5.35941 23 8.42274 23H17.3116C20.375 23 22.8672 20.5078 22.8672 17.4444V8.55556C22.8672 5.49222 20.375 3 17.3116 3H8.42274ZM8.42274 5.22222H17.3116C19.1494 5.22222 20.645 6.71778 20.645 8.55556V17.4444C20.645 19.2822 19.1494 20.7778 17.3116 20.7778H8.42274C6.58497 20.7778 5.08941 19.2822 5.08941 17.4444V8.55556C5.08941 6.71778 6.58497 5.22222 8.42274 5.22222ZM18.4227 6.33333C18.1281 6.33333 17.8454 6.4504 17.6371 6.65877C17.4287 6.86714 17.3116 7.14976 17.3116 7.44444C17.3116 7.73913 17.4287 8.02174 17.6371 8.23012C17.8454 8.43849 18.1281 8.55556 18.4227 8.55556C18.7174 8.55556 19 8.43849 19.2084 8.23012C19.4168 8.02174 19.5339 7.73913 19.5339 7.44444C19.5339 7.14976 19.4168 6.86714 19.2084 6.65877C19 6.4504 18.7174 6.33333 18.4227 6.33333ZM12.8672 7.44444C9.80385 7.44444 7.31163 9.93667 7.31163 13C7.31163 16.0633 9.80385 18.5556 12.8672 18.5556C15.9305 18.5556 18.4227 16.0633 18.4227 13C18.4227 9.93667 15.9305 7.44444 12.8672 7.44444ZM12.8672 9.66667C14.705 9.66667 16.2005 11.1622 16.2005 13C16.2005 14.8378 14.705 16.3333 12.8672 16.3333C11.0294 16.3333 9.53385 14.8378 9.53385 13C9.53385 11.1622 11.0294 9.66667 12.8672 9.66667Z" fill="#26272B"/>
</svg>
