<svg width="24" height="24" viewBox="0 0 24 24" fill="none" xmlns="http://www.w3.org/2000/svg">
<path d="M12.8125 3C7.30596 3 2.82329 7.47838 2.82129 12.9844C2.82029 14.7444 3.28132 16.4626 4.15541 17.9766L2.7998 23L8.03274 21.7637C9.49188 22.5597 11.1345 22.9775 12.8066 22.9785H12.8105C18.3161 22.9785 22.7968 18.4991 22.7998 12.9941C22.8018 10.3251 21.7638 7.81573 19.8776 5.92773C17.9915 4.04073 15.4848 3.001 12.8125 3ZM12.8105 5C14.9468 5.001 16.9543 5.8338 18.4634 7.3418C19.9726 8.8518 20.8016 10.8582 20.7996 12.9922C20.7976 17.3962 17.215 20.9785 12.8086 20.9785C11.4755 20.9775 10.1549 20.6428 8.99182 20.0078L8.31792 19.6406L7.57371 19.8164L5.60477 20.2812L6.08528 18.4961L6.3021 17.6953L5.888 16.9766C5.18993 15.7686 4.82049 14.3874 4.82149 12.9844C4.82349 8.58238 8.40712 5 12.8105 5ZM9.277 8.375C9.10998 8.375 8.83994 8.4375 8.61092 8.6875C8.3819 8.9365 7.73583 9.53958 7.73583 10.7676C7.73583 11.9956 8.63045 13.1826 8.75546 13.3496C8.87948 13.5156 10.4823 16.1152 13.0196 17.1152C15.1278 17.9462 15.5559 17.7822 16.014 17.7402C16.472 17.6992 17.4917 17.1377 17.6997 16.5547C17.9077 15.9717 17.9082 15.4702 17.8462 15.3672C17.7842 15.2632 17.6177 15.2012 17.3676 15.0762C17.1186 14.9512 15.8914 14.3486 15.6624 14.2656C15.4334 14.1826 15.2658 14.1406 15.0998 14.3906C14.9338 14.6406 14.4567 15.2012 14.3107 15.3672C14.1647 15.5342 14.0196 15.5566 13.7696 15.4316C13.5196 15.3056 12.7157 15.0414 11.7616 14.1914C11.0195 13.5304 10.5188 12.7148 10.3728 12.4648C10.2278 12.2158 10.3591 12.0791 10.4841 11.9551C10.5962 11.8431 10.7322 11.6636 10.8572 11.5176C10.9812 11.3716 11.0242 11.2676 11.1073 11.1016C11.1903 10.9356 11.1478 10.7891 11.0858 10.6641C11.0238 10.5391 10.5382 9.3065 10.3162 8.8125C10.1291 8.3975 9.93162 8.38786 9.75361 8.38086C9.60859 8.37486 9.44302 8.375 9.277 8.375Z" fill="#26272B"/>
</svg>
