<svg width="24" height="24" viewBox="0 0 24 24" fill="none" xmlns="http://www.w3.org/2000/svg">
<path d="M19.8669 3.375C20.7509 3.375 21.5988 3.72619 22.2239 4.35131C22.849 4.97643 23.2002 5.82428 23.2002 6.70833V20.0417C23.2002 20.9257 22.849 21.7736 22.2239 22.3987C21.5988 23.0238 20.7509 23.375 19.8669 23.375H6.53353C5.64947 23.375 4.80163 23.0238 4.17651 22.3987C3.55138 21.7736 3.2002 20.9257 3.2002 20.0417V6.70833C3.2002 5.82428 3.55138 4.97643 4.17651 4.35131C4.80163 3.72619 5.64947 3.375 6.53353 3.375H19.8669ZM19.8669 5.59722H6.53353C6.23884 5.59722 5.95623 5.71429 5.74785 5.92266C5.53948 6.13103 5.42242 6.41365 5.42242 6.70833V20.0417C5.42242 20.3364 5.53948 20.619 5.74785 20.8273C5.95623 21.0357 6.23884 21.1528 6.53353 21.1528H19.8669C20.1615 21.1528 20.4442 21.0357 20.6525 20.8273C20.8609 20.619 20.978 20.3364 20.978 20.0417V6.70833C20.978 6.41365 20.8609 6.13103 20.6525 5.92266C20.4442 5.71429 20.1615 5.59722 19.8669 5.59722ZM8.75575 11.1528C9.0279 11.1528 9.29057 11.2527 9.49394 11.4336C9.69731 11.6144 9.82724 11.8636 9.85908 12.1339L9.86686 12.2639V17.8194C9.86655 18.1026 9.75811 18.375 9.5637 18.581C9.36929 18.7869 9.10358 18.9108 8.82087 18.9274C8.53816 18.944 8.25977 18.852 8.0426 18.6703C7.82543 18.4885 7.68587 18.2307 7.65242 17.9494L7.64464 17.8194V12.2639C7.64464 11.9692 7.7617 11.6866 7.97008 11.4782C8.17845 11.2698 8.46107 11.1528 8.75575 11.1528ZM12.0891 10.0417C12.3493 10.0416 12.6013 10.1329 12.8011 10.2996C13.0009 10.4663 13.1358 10.6979 13.1824 10.9539C13.4062 10.8246 13.6374 10.7085 13.8746 10.6061C14.6158 10.2894 15.7258 10.115 16.728 10.4294C17.2535 10.5961 17.7813 10.9072 18.1724 11.4372C18.5224 11.9094 18.7113 12.4839 18.7491 13.1294L18.7558 13.375V17.8194C18.7554 18.1026 18.647 18.375 18.4526 18.581C18.2582 18.7869 17.9925 18.9108 17.7098 18.9274C17.427 18.944 17.1487 18.852 16.9315 18.6703C16.7143 18.4885 16.5748 18.2307 16.5413 17.9494L16.5335 17.8194V13.375C16.5335 13.0083 16.4446 12.8372 16.3869 12.7583C16.3038 12.6553 16.1896 12.582 16.0613 12.5494C15.6746 12.4272 15.118 12.4917 14.748 12.6494C14.1924 12.8872 13.6835 13.2606 13.3369 13.6061L13.2002 13.7528V17.8194C13.1999 18.1026 13.0914 18.375 12.897 18.581C12.7026 18.7869 12.4369 18.9108 12.1542 18.9274C11.8715 18.944 11.5931 18.852 11.3759 18.6703C11.1588 18.4885 11.0192 18.2307 10.9858 17.9494L10.978 17.8194V11.1528C10.978 10.8581 11.095 10.5755 11.3034 10.3671C11.5118 10.1587 11.7944 10.0417 12.0891 10.0417ZM8.75575 7.81944C9.05044 7.81944 9.33305 7.93651 9.54143 8.14488C9.7498 8.35326 9.86686 8.63587 9.86686 8.93056C9.86686 9.22524 9.7498 9.50786 9.54143 9.71623C9.33305 9.9246 9.05044 10.0417 8.75575 10.0417C8.46107 10.0417 8.17845 9.9246 7.97008 9.71623C7.7617 9.50786 7.64464 9.22524 7.64464 8.93056C7.64464 8.63587 7.7617 8.35326 7.97008 8.14488C8.17845 7.93651 8.46107 7.81944 8.75575 7.81944Z" fill="#26272B"/>
</svg>
