<svg width="24" height="24" viewBox="0 0 24 24" fill="none" xmlns="http://www.w3.org/2000/svg">
<path d="M11.6309 3.58424L9.78961 3.10436C9.39634 2.99962 8.98626 2.97339 8.58284 3.02716C8.17942 3.08094 7.79056 3.21366 7.43848 3.41775C7.08641 3.62183 6.77803 3.89328 6.53097 4.21657C6.28391 4.53985 6.10303 4.90864 5.99865 5.30185L5.53905 7.03702C7.05468 5.15147 9.234 3.91626 11.6309 3.58424Z" fill="#26272B"/>
<path d="M3.5545 14.5073L3.10368 16.2073C2.89295 17.0008 3.00618 17.8455 3.41846 18.5556C3.83074 19.2656 4.50832 19.7829 5.30215 19.9937L7.05858 20.4619C5.18311 18.988 3.93199 16.8619 3.5545 14.5073Z" fill="#26272B"/>
<path d="M20.6966 5.99837L18.7265 5.4746C19.722 6.24003 20.5555 7.19547 21.1786 8.28547C21.8018 9.37546 22.2021 10.5783 22.3564 11.8242L22.898 9.77595C23.106 8.98327 22.991 8.14049 22.5784 7.43238C22.1657 6.72426 21.489 6.20857 20.6966 5.99837Z" fill="#26272B"/>
<path d="M14.3242 22.3872L16.2123 22.8964C17.0062 23.107 17.8512 22.9938 18.5616 22.5817C19.272 22.1696 19.7895 21.4923 20.0004 20.6989L20.5331 18.6974C19.031 20.6973 16.7995 22.0234 14.3242 22.3872Z" fill="#26272B"/>
<path d="M13.001 4.32763C11.2853 4.32705 9.60805 4.83505 8.18126 5.78737C6.75447 6.73969 5.64226 8.09355 4.98531 9.67774C4.32836 11.2619 4.15617 13.0053 4.49052 14.6873C4.82488 16.3693 5.65075 17.9144 6.86369 19.1272C8.07663 20.34 9.62215 21.1661 11.3048 21.5008C12.9874 21.8356 14.7316 21.6641 16.3167 21.008C17.9018 20.3518 19.2567 19.2406 20.2099 17.8147C21.1631 16.3889 21.6719 14.7125 21.6719 12.9976C21.6719 10.6987 20.7584 8.49391 19.1324 6.86805C17.5064 5.24219 15.3009 4.32841 13.001 4.32763ZM8.08883 8.65239C8.18158 8.17171 8.41482 7.72931 8.75908 7.38112C9.10333 7.03293 9.54315 6.79458 10.0229 6.6962C10.5027 6.59783 11.0008 6.64385 11.4544 6.82844C11.908 7.01303 12.2967 7.32791 12.5713 7.73327C12.8459 8.13863 12.9941 8.61626 12.9971 9.10579C13.0001 9.59532 12.8579 10.0748 12.5884 10.4835C12.3189 10.8922 11.9342 11.2119 11.4829 11.4021C11.0316 11.5923 10.5341 11.6446 10.0531 11.5521C9.7336 11.4908 9.42932 11.367 9.15766 11.1881C8.88601 11.0091 8.6523 10.7784 8.46988 10.5091C8.28746 10.2398 8.15992 9.93721 8.09454 9.61863C8.02916 9.30005 8.02722 8.97172 8.08883 8.65239ZM11.6924 16.1432C11.599 16.6237 11.3652 17.0657 11.0205 17.4134C10.6758 17.7611 10.2358 17.9989 9.75593 18.0966C9.27609 18.1944 8.77802 18.1478 8.32469 17.9626C7.87136 17.7775 7.48311 17.4622 7.20902 17.0566C6.93493 16.6509 6.78731 16.1732 6.7848 15.6837C6.7823 15.1942 6.92503 14.715 7.19496 14.3066C7.46488 13.8981 7.84989 13.5789 8.3013 13.3891C8.75272 13.1994 9.25028 13.1477 9.73109 13.2405C10.0506 13.3022 10.3549 13.4263 10.6264 13.6056C10.898 13.7849 11.1315 14.0159 11.3137 14.2855C11.4958 14.5551 11.623 14.8579 11.688 15.1767C11.753 15.4954 11.7545 15.8238 11.6924 16.1432ZM12.7434 14.1388C12.5299 14.0975 12.3335 13.994 12.1788 13.8413C12.0242 13.6885 11.9182 13.4934 11.8744 13.2806C11.8305 13.0677 11.8507 12.8467 11.9324 12.6453C12.014 12.4439 12.1536 12.2712 12.3333 12.1489C12.5131 12.0267 12.725 11.9604 12.9424 11.9585C13.1598 11.9565 13.373 12.0189 13.5549 12.1379C13.7369 12.2568 13.8795 12.427 13.9648 12.6268C14.0501 12.8267 14.0743 13.0474 14.0343 13.261C14.0077 13.4036 13.953 13.5394 13.8736 13.6608C13.7942 13.7822 13.6915 13.8867 13.5715 13.9683C13.4515 14.0499 13.3166 14.107 13.1745 14.1362C13.0324 14.1655 12.8858 14.1664 12.7434 14.1388ZM17.9102 17.337C17.8175 17.8177 17.5842 18.2601 17.24 18.6083C16.8957 18.9565 16.4559 19.1948 15.9761 19.2932C15.4964 19.3916 14.9982 19.3456 14.5446 19.161C14.091 18.9764 13.7023 18.6615 13.4277 18.2562C13.1532 17.8508 13.005 17.3732 13.0019 16.8836C12.9989 16.3941 13.1411 15.9147 13.4106 15.5059C13.6802 15.0972 14.0649 14.7775 14.5161 14.5873C14.9674 14.3971 15.465 14.3449 15.9459 14.4373C16.2654 14.4987 16.5697 14.6224 16.8414 14.8013C17.113 14.9803 17.3467 15.211 17.5292 15.4803C17.7116 15.7496 17.8391 16.0522 17.9045 16.3708C17.9699 16.6894 17.9718 17.0177 17.9102 17.337ZM16.2709 12.7489C15.79 12.6562 15.3474 12.4231 14.999 12.079C14.6507 11.7349 14.4122 11.2952 14.3138 10.8157C14.2154 10.3361 14.2614 9.83819 14.4461 9.38479C14.6308 8.93139 14.9458 8.5429 15.3513 8.26844C15.7569 7.99397 16.2347 7.84586 16.7245 7.84281C17.2142 7.83977 17.6939 7.98194 18.1028 8.25134C18.5117 8.52075 18.8315 8.90529 19.0218 9.35636C19.2121 9.80743 19.2644 10.3048 19.1719 10.7855C19.1108 11.1051 18.9873 11.4096 18.8084 11.6815C18.6295 11.9533 18.3987 12.1873 18.1293 12.3699C17.8598 12.5525 17.557 12.6803 17.2381 12.7458C16.9192 12.8113 16.5905 12.8134 16.2709 12.7518V12.7489Z" fill="#26272B"/>
</svg>
