<svg width="33" height="29" viewBox="0 0 33 29" fill="none" xmlns="http://www.w3.org/2000/svg">
<path d="M31.6787 12.6755H29.1239C27.7249 12.6755 26.3263 12.6755 24.9281 12.6755C23.3704 12.6673 22.1626 11.7711 20.884 10.8213C19.8603 10.0616 18.8052 9.27747 17.5163 8.91806C17.7375 8.52131 17.9737 8.13623 18.2042 7.76049C18.7925 6.80129 19.4016 5.80709 19.7305 4.67052L19.741 4.63201C20.0884 2.75679 18.6987 1.24798 17.1607 0.720543C15.4479 0.13709 13.852 0.734546 13.0888 2.23752C12.4855 3.19905 11.9307 4.22126 11.3922 5.20496C10.5746 6.6951 9.73152 8.24359 8.71702 9.59603C7.87972 10.1515 7.02041 10.7046 6.19005 11.2402C5.7384 11.528 5.28944 11.8178 4.84318 12.1095C2.97054 13.3115 2.20851 15.3384 1.47196 17.2976C1.19054 18.0479 0.92302 18.7574 0.597595 19.4249L0.587172 19.4494C0.0312842 20.8088 0.376398 22.1484 1.51365 23.033C1.59371 23.0948 1.67896 23.1494 1.76843 23.1963C1.75454 24.0353 1.75801 25.0914 1.76033 26.0237C1.76033 26.3481 1.76033 26.6585 1.76033 26.9456C1.76033 27.7029 1.83444 28.1837 2.2143 28.4054C2.3249 28.4692 2.45051 28.5019 2.57794 28.4999C2.91727 28.4999 3.29596 28.3015 3.66424 28.0892C4.45406 27.6306 7.53576 25.795 7.56588 25.7764L7.63189 25.7379L8.17851 25.0272C8.60932 25.7203 9.16753 26.1684 9.81838 26.3341C10.5283 26.5162 11.2961 26.3446 12.0512 25.8394C13.1583 26.6469 14.306 26.6095 15.3865 25.7297C15.4443 25.7318 15.5014 25.7432 15.5556 25.7635C16.7662 26.3693 18.101 26.6803 19.4526 26.6714C23.2048 26.6714 27.0196 26.6714 30.7105 26.6714H31.6717C32.7013 26.6714 32.9989 26.3726 33 25.3434C33 21.5634 33 17.7838 33 14.0046C33 12.9486 32.7279 12.6767 31.6787 12.6755ZM12.1242 7.59129C12.9661 6.13849 13.8347 4.63551 14.672 3.15704C15.0715 2.4569 15.6262 2.15934 16.1555 2.34954L16.1763 2.35655C17.0264 2.60976 17.6413 3.05669 17.8637 3.57246C18.0189 3.93887 17.9865 4.34729 17.7641 4.78955C16.9824 6.13849 16.2018 7.52477 15.4479 8.86322C14.167 11.1328 12.8445 13.4772 11.4756 15.7235L8.30243 14.3232C9.53928 12.057 10.8526 9.78857 12.1242 7.59129ZM2.26178 21.1076C2.18527 20.974 2.1428 20.8234 2.13815 20.6693C2.1335 20.5151 2.16683 20.3622 2.23515 20.2242C2.51309 19.5696 2.75976 18.8998 2.99833 18.2545C3.32376 17.377 3.65845 16.4691 4.06957 15.6021C4.63125 14.3617 5.85536 13.5682 7.04357 12.8015C6.77258 13.3523 6.50506 13.8611 6.07424 14.1295C3.71635 14.9008 3.65961 16.692 3.8368 18.3478L3.41641 19.1028C3.03308 19.7913 2.66596 20.4541 2.26178 21.1076ZM3.63876 25.9782V23.8416L5.47667 24.9082L3.63876 25.9782ZM6.97409 23.6444L3.93987 21.8824L5.14082 19.7901L8.46109 21.0492L6.97409 23.6444ZM11.1178 23.949V23.9723C11.0575 24.3014 10.7356 24.5849 10.4461 24.5733C10.0106 24.5313 9.86702 24.3236 9.78827 24.1707C9.55665 23.6864 9.71646 22.7564 10.1508 21.9372C11.1062 22.474 11.3749 22.8988 11.1178 23.949ZM13.3876 24.5091C13.1982 24.3914 13.0556 24.2106 12.9846 23.998L13.7235 24.5663C13.6082 24.5896 13.4885 24.5688 13.3876 24.5079V24.5091ZM24.7034 24.7518C22.8088 24.8463 20.8006 24.7518 18.8539 24.662L17.8637 24.6165C16.5678 24.5243 15.4606 23.6222 14.4832 22.8253C12.5144 21.2231 10.1044 19.4657 7.15822 18.5917L7.10958 18.58C6.52127 18.4844 5.99665 18.1775 5.73955 17.7795C5.65171 17.6429 5.59387 17.4889 5.5699 17.3279C5.54593 17.1669 5.55639 17.0026 5.60058 16.846C5.75577 16.4178 5.98854 16.1459 6.30702 16.0292C7.30183 15.6441 9.08646 16.6126 10.526 17.3875C11.3934 17.8542 12.1473 18.2615 12.7414 18.4143C13.7837 18.8146 14.8827 19.0806 15.9459 19.3397C16.2134 19.405 16.4786 19.4692 16.745 19.5369C17.2001 19.6863 17.6274 19.5976 17.8903 19.2965C18.0082 19.1598 18.0832 18.991 18.1059 18.8113C18.1286 18.6316 18.0979 18.4492 18.0177 18.2872C17.8359 17.9126 17.4387 17.7037 16.943 17.7235C15.6174 17.5762 14.3277 17.1955 13.1329 16.5986L13.8462 15.3524C14.6141 14.0093 15.3703 12.686 16.1323 11.3557C16.3385 10.9952 16.5527 10.6229 16.65 10.5891C16.7473 10.5552 17.2441 10.8014 17.478 10.9216L17.4954 10.931C18.408 11.3441 19.2198 11.917 20.005 12.4713C21.375 13.4398 22.7845 14.4375 24.7034 14.532V24.7518ZM31.1436 24.7845H26.5946V14.5682H31.1436V24.7845Z" fill="#6D6E73"/>
</svg>
