<svg width="28" height="29" viewBox="0 0 28 29" fill="none" xmlns="http://www.w3.org/2000/svg">
<path d="M25.5064 7.69184H9.69108C8.10591 7.69184 7.19751 8.60842 7.19751 10.209V25.9735C7.19751 27.5741 8.10591 28.4916 9.69108 28.4916H25.5064C27.0916 28.4916 28 27.5741 28 25.9717V10.209C28 8.60842 27.0916 7.69184 25.5064 7.69184ZM26.0515 25.0324C26.0515 25.9136 25.5973 26.5467 24.5154 26.5467H10.6812C9.74377 26.5467 9.13695 26.0571 9.13695 25.0497V11.2364C9.13695 10.2581 9.8337 9.63674 10.6812 9.63674L24.5253 9.64491C25.5782 9.64491 26.0569 10.3716 26.0569 11.1683L26.0515 25.0324Z" fill="#6D6E73"/>
<path d="M5.97387 23.4391L5.32799 24.1285C4.8865 24.6082 4.43321 25.0878 3.97991 25.5629C3.88549 25.6817 3.76729 25.7795 3.6329 25.85C3.49847 25.9206 3.35101 25.9629 3.19959 25.9744C3.05248 25.965 2.9089 25.9253 2.77777 25.858C2.64665 25.7906 2.5308 25.697 2.43744 25.5829C2.02866 25.1541 1.61988 24.7172 1.22654 24.2948C0.943114 23.9914 0.6606 23.6889 0.373543 23.3864C0.2704 23.2921 0.188167 23.1773 0.13215 23.0493C0.0761343 22.9213 0.047581 22.783 0.0483341 22.6433C0.060054 22.5298 0.0966538 22.4203 0.155526 22.3226C0.213692 22.2246 0.292409 22.1403 0.386261 22.0755C0.545267 21.9483 0.742176 21.8776 0.945839 21.8748C1.09865 21.8815 1.24826 21.9208 1.3846 21.9902C1.52075 22.0599 1.6408 22.1574 1.73706 22.2763L2.2494 22.8214V13.4048L1.90693 13.7627L1.84698 13.8381C1.74449 13.9957 1.59423 14.1164 1.41821 14.1824C1.24804 14.2404 1.07013 14.2726 0.890426 14.2778C0.723183 14.284 0.558522 14.2352 0.421689 14.1388C0.33663 14.0693 0.26695 13.9828 0.217066 13.8849C0.167182 13.787 0.138183 13.6798 0.131907 13.5701C0.116589 13.4665 0.122457 13.3608 0.149157 13.2594C0.175856 13.1581 0.222833 13.0632 0.287245 12.9806C1.07392 12.0949 1.90693 11.2101 2.54827 10.547C2.63103 10.4566 2.73153 10.3842 2.8435 10.3344C2.95521 10.2843 3.07624 10.2583 3.19869 10.2581C3.33364 10.2624 3.46633 10.294 3.58873 10.351C3.71114 10.4079 3.82072 10.4891 3.91088 10.5897L4.1834 10.8876C4.81111 11.5508 5.45517 12.2293 6.06834 12.9324C6.13905 13.0175 6.18633 13.1196 6.20551 13.2286C6.22735 13.3453 6.22269 13.4655 6.19188 13.5801C6.16141 13.6948 6.10587 13.8012 6.02928 13.8917C5.93766 13.9928 5.82531 14.073 5.6999 14.1268C5.57449 14.1805 5.43896 14.2066 5.30255 14.2033C5.15513 14.2034 5.00999 14.1668 4.88015 14.097C4.83046 14.0706 4.78436 14.0379 4.74298 13.9998C4.52223 13.8072 4.32783 13.6038 4.12708 13.3921V22.8468L4.63942 22.3136C4.73696 22.1866 4.86015 22.0817 5.00096 22.0056C5.14098 21.9286 5.29584 21.8825 5.45517 21.8703C5.64218 21.8719 5.82383 21.933 5.97387 22.0447C6.07687 22.1066 6.16447 22.191 6.23004 22.2917C6.29536 22.3926 6.33726 22.5069 6.35267 22.626C6.35305 22.7814 6.31961 22.9351 6.25467 23.0762C6.18972 23.2174 6.09484 23.3428 5.97659 23.4436L5.97387 23.4391Z" fill="#6D6E73"/>
<path d="M25.4229 3.69578C25.4183 3.83042 25.3866 3.96276 25.3296 4.08484C25.2727 4.20691 25.1916 4.31621 25.0913 4.40615L24.687 4.79767C24.0821 5.38541 23.4516 5.99314 22.8039 6.56543C22.7203 6.63717 22.619 6.68517 22.5105 6.70442C22.4632 6.7135 22.4151 6.71806 22.367 6.71804C22.2236 6.71518 22.0835 6.67517 21.9603 6.60193C21.837 6.52868 21.7349 6.42471 21.6639 6.30018C21.5814 6.16416 21.535 6.00932 21.5291 5.85034C21.5232 5.69136 21.558 5.53351 21.6303 5.39177C21.6563 5.34148 21.6883 5.29451 21.7256 5.25188C21.9155 5.03114 22.1172 4.83492 22.3243 4.63325H13.0858C13.2675 4.80585 13.4419 4.97391 13.619 5.13924C13.7962 5.30456 14.3103 5.81327 13.8616 6.46551C13.794 6.57819 13.699 6.67193 13.5854 6.73801C13.4719 6.80409 13.3434 6.84034 13.2121 6.8434C13.0698 6.83263 12.931 6.79367 12.8039 6.7288C12.6768 6.66392 12.5639 6.57442 12.4717 6.46551L11.9948 6.0113C11.4661 5.50986 10.9229 4.99207 10.3897 4.46701C10.275 4.37151 10.1805 4.25417 10.1117 4.12182C10.0436 3.98927 10.0028 3.84439 9.99177 3.69578C10.0007 3.54882 10.04 3.4053 10.1071 3.27428C10.174 3.1432 10.2667 3.02701 10.3797 2.93272C10.7794 2.54392 11.1909 2.1524 11.5869 1.7745L12.5299 0.870636C12.7052 0.683392 12.9452 0.569748 13.2012 0.552694C13.3261 0.554464 13.4486 0.586865 13.558 0.647051C13.6675 0.707238 13.7605 0.793371 13.8289 0.897888C14.1514 1.32211 14.0678 1.82628 13.6236 2.24142C13.4492 2.40766 13.2675 2.57571 13.0903 2.7474H22.307L21.8873 2.33408C21.8693 2.3157 21.8498 2.29869 21.8292 2.28321C21.6736 2.17772 21.559 2.0218 21.5049 1.84172C21.4386 1.56284 21.3986 1.17859 21.5885 0.917873C21.6716 0.821027 21.7747 0.743407 21.8908 0.69039C22.0069 0.637372 22.1331 0.610226 22.2607 0.610832C22.4224 0.604118 22.5807 0.659348 22.7031 0.765261C23.527 1.51015 24.3537 2.29502 25.1558 3.09441C25.239 3.17092 25.3055 3.26387 25.351 3.36738C25.3965 3.47089 25.42 3.58271 25.4201 3.69578H25.4229Z" fill="#6D6E73"/>
<path d="M9.12967 1.60553V5.80418C9.12967 6.59995 8.63459 6.88519 8.17312 6.88519H8.14405C7.92331 6.88519 7.17841 6.78526 7.1984 5.7951V1.64005C7.1984 0.621726 7.86154 0.504542 8.15495 0.5C8.62641 0.5 9.12513 0.787056 9.12967 1.60553Z" fill="#6D6E73"/>
<path d="M28 1.60553V5.75331C28 6.73076 27.4013 6.88337 27.0389 6.887C26.5747 6.887 26.0751 6.60267 26.0733 5.80237V1.59009C26.0733 0.787965 26.592 0.5 27.0362 0.5H27.0498C27.514 0.5 28.0091 0.79614 28 1.60553Z" fill="#6D6E73"/>
<path d="M6.38721 8.61751C6.39725 8.74557 6.38082 8.87433 6.33894 8.99576C6.29705 9.1172 6.23061 9.2287 6.14375 9.32334C6.01875 9.43277 5.87278 9.51562 5.71474 9.56684C5.55669 9.61807 5.38988 9.63659 5.22445 9.6213H1.1666C0.143733 9.62312 0.00474741 8.96725 0.00474741 8.67565C-0.00256515 8.54886 0.0156606 8.4219 0.0583434 8.30229C0.101114 8.18256 0.167883 8.07283 0.254559 7.97981C0.379203 7.87201 0.524267 7.7904 0.681111 7.73983C0.837955 7.68927 1.00337 7.67079 1.16751 7.68549H5.23353C6.16192 7.69366 6.37358 8.19601 6.38721 8.61751Z" fill="#6D6E73"/>
<path d="M6.3636 27.6613L6.3527 27.6986L6.33907 27.7367C6.26172 27.9204 6.14085 28.0826 5.98686 28.2092C5.83288 28.3358 5.65041 28.4231 5.45519 28.4634H5.39524C5.08819 28.4852 4.75935 28.4961 4.34058 28.4961H1.08485C0.921179 28.51 0.756498 28.4864 0.603334 28.427C0.450171 28.3677 0.31256 28.2742 0.200971 28.1537C0.121091 28.0567 0.0639605 27.943 0.0337782 27.821C0.00359584 27.699 0.0011284 27.5718 0.0265572 27.4487C0.0894032 27.2199 0.219425 27.0152 0.399821 26.861C0.580218 26.7069 0.8027 26.6104 1.03852 26.5839C1.70166 26.5667 2.40113 26.5603 3.25957 26.5603H5.37707C5.53684 26.5522 5.69633 26.5811 5.84308 26.6448C5.9902 26.7077 6.121 26.8034 6.22552 26.9246C6.30482 27.0279 6.35865 27.1484 6.38264 27.2764C6.40663 27.4044 6.40011 27.5363 6.3636 27.6613Z" fill="#6D6E73"/>
</svg>
