<svg width="30" height="29" viewBox="0 0 30 29" fill="none" xmlns="http://www.w3.org/2000/svg">
<path d="M28.5417 4.06301H23.1933V0.5H21.2495V4.06301H9.58417V0.5H7.63808V4.06301H2.29194C2.09945 4.06344 1.909 4.1032 1.73184 4.17994C1.55468 4.25668 1.3944 4.36885 1.26047 4.50982C0.986385 4.79957 0.83331 5.18648 0.833496 5.58903V26.9625C0.83331 27.3651 0.986385 27.752 1.26047 28.0417C1.39345 28.1848 1.5533 28.2991 1.73051 28.3778C1.90772 28.4565 2.09865 28.4981 2.29194 28.5H28.5417C28.7347 28.4983 28.9254 28.4568 29.1022 28.3781C29.2791 28.2993 29.4385 28.1849 29.5709 28.0417C29.8456 27.7522 29.9995 27.3654 30.0002 26.9625V5.58903C29.9995 5.1862 29.8456 4.79934 29.5709 4.50982C29.4376 4.36871 29.2777 4.25643 29.1009 4.17966C28.9241 4.1029 28.7339 4.06323 28.5417 4.06301ZM28.0541 26.4538H2.77734V6.09771H7.63808V8.64108H9.58417V6.09771H21.2495V8.64108H23.1933V6.09771H28.0541V26.4538Z" fill="#6D6E73"/>
<path d="M6.67627 12.2041H8.62011V14.248H6.67627V12.2041ZM12.0224 12.2041H13.9573V14.248H12.0134L12.0224 12.2041ZM16.8831 12.2041H18.8113V14.248H16.8742L16.8831 12.2041ZM22.2315 12.2041H24.1754V14.248H22.2225L22.2315 12.2041ZM6.67627 16.7845H8.62011V18.8306H6.67627V16.7845ZM12.0224 16.7845H13.9573V18.8306H12.0134L12.0224 16.7845ZM16.8831 16.7845H18.8113V18.8306H16.8742L16.8831 16.7845ZM22.2315 16.7845H24.1754V18.8306H22.2225L22.2315 16.7845ZM6.67627 21.3648H8.62011V23.3995H6.67627V21.3648ZM12.0224 21.3648H13.9573V23.3995H12.0134L12.0224 21.3648ZM16.8831 21.3648H18.8113V23.3995H16.8742L16.8831 21.3648ZM22.2315 21.3648H24.1754V23.3995H22.2225L22.2315 21.3648Z" fill="#6D6E73"/>
</svg>
