<svg width="21" height="29" viewBox="0 0 21 29" fill="none" xmlns="http://www.w3.org/2000/svg">
<path fill-rule="evenodd" clip-rule="evenodd" d="M19.85 6.21972C19.0952 4.73975 17.9994 3.46041 16.6529 2.48724C15.3065 1.51406 13.7479 0.874927 12.1059 0.622553C11.5772 0.540491 11.043 0.499518 10.508 0.500004C8.56254 0.4992 6.65509 1.03884 4.99838 2.05873C3.34167 3.07863 2.00084 4.53869 1.12543 6.27607C0.250013 8.01346 -0.125571 9.95988 0.0405617 11.8982C0.206695 13.8366 0.908014 15.6907 2.0663 17.2538L10.5009 28.5L11.9503 26.5628L18.9379 17.2515C20.2829 15.444 21.0064 13.2497 21.0001 10.9968C20.998 9.3361 20.6039 7.69937 19.85 6.21972ZM17.2576 15.9906L10.5009 24.9838L3.75606 15.9906C3.06539 15.0581 2.57564 13.9924 2.31774 12.8609C2.05984 11.7295 2.0394 10.5568 2.25772 9.41709C2.47603 8.27734 2.92836 7.19525 3.58611 6.23918C4.24386 5.28312 5.09275 4.47386 6.07915 3.86254C7.06554 3.25121 8.16801 2.8511 9.31689 2.68749C10.4658 2.52388 11.6361 2.60031 12.7539 2.91197C13.8718 3.22363 14.9128 3.76374 15.8113 4.49818C16.7098 5.23261 17.4462 6.14541 17.9741 7.1789C18.6834 8.57028 18.9911 10.1318 18.8624 11.6883C18.7338 13.2447 18.174 14.7346 17.2458 15.9906H17.2576Z" fill="#6D6E73"/>
<path fill-rule="evenodd" clip-rule="evenodd" d="M13.805 10.9968C13.8034 11.5385 13.6685 12.0715 13.412 12.5487C13.1556 13.026 12.7856 13.4327 12.3347 13.733C11.8839 14.0334 11.366 14.218 10.8268 14.2708C10.2876 14.3235 9.74377 14.2427 9.24325 14.0354C8.74273 13.8281 8.30095 13.5008 7.95692 13.0823C7.61289 12.6638 7.37721 12.167 7.27067 11.6359C7.16414 11.1047 7.19005 10.5555 7.34609 10.0367C7.50214 9.5179 7.78353 9.04552 8.16542 8.66127C8.78573 8.04305 9.62514 7.69492 10.5009 7.69266C11.376 7.69266 12.2152 8.04028 12.8339 8.65903C13.4527 9.27779 13.8003 10.117 13.8003 10.992L13.805 10.9968Z" fill="#6D6E73"/>
</svg>
