<svg width="21" height="21" viewBox="0 0 21 21" fill="none" xmlns="http://www.w3.org/2000/svg">
<path d="M5.62294 0.133301C2.55961 0.133301 0.0673828 2.62552 0.0673828 5.68886V14.5777C0.0673828 17.6411 2.55961 20.1333 5.62294 20.1333H14.5118C17.5752 20.1333 20.0674 17.6411 20.0674 14.5777V5.68886C20.0674 2.62552 17.5752 0.133301 14.5118 0.133301H5.62294ZM5.62294 2.35552H14.5118C16.3496 2.35552 17.8452 3.85108 17.8452 5.68886V14.5777C17.8452 16.4155 16.3496 17.9111 14.5118 17.9111H5.62294C3.78516 17.9111 2.28961 16.4155 2.28961 14.5777V5.68886C2.28961 3.85108 3.78516 2.35552 5.62294 2.35552ZM15.6229 3.46663C15.3283 3.46663 15.0456 3.5837 14.8373 3.79207C14.6289 4.00045 14.5118 4.28306 14.5118 4.57775C14.5118 4.87243 14.6289 5.15505 14.8373 5.36342C15.0456 5.57179 15.3283 5.68886 15.6229 5.68886C15.9176 5.68886 16.2002 5.57179 16.4086 5.36342C16.617 5.15505 16.7341 4.87243 16.7341 4.57775C16.7341 4.28306 16.617 4.00045 16.4086 3.79207C16.2002 3.5837 15.9176 3.46663 15.6229 3.46663ZM10.0674 4.57775C7.00405 4.57775 4.51183 7.06997 4.51183 10.1333C4.51183 13.1966 7.00405 15.6889 10.0674 15.6889C13.1307 15.6889 15.6229 13.1966 15.6229 10.1333C15.6229 7.06997 13.1307 4.57775 10.0674 4.57775ZM10.0674 6.79997C11.9052 6.79997 13.4007 8.29552 13.4007 10.1333C13.4007 11.9711 11.9052 13.4666 10.0674 13.4666C8.22961 13.4666 6.73405 11.9711 6.73405 10.1333C6.73405 8.29552 8.22961 6.79997 10.0674 6.79997Z" fill="white"/>
</svg>
