<svg width="26" height="24" viewBox="0 0 26 24" fill="none" xmlns="http://www.w3.org/2000/svg">
<path d="M7.69452 15.2734C8.25557 15.2734 8.7104 14.8186 8.7104 14.2576C8.7104 13.6965 8.25557 13.2417 7.69452 13.2417C7.13347 13.2417 6.67865 13.6965 6.67865 14.2576C6.67865 14.8186 7.13347 15.2734 7.69452 15.2734Z" fill="#6D6E73"/>
<path d="M11.1937 15.2734C11.7547 15.2734 12.2095 14.8186 12.2095 14.2576C12.2095 13.6965 11.7547 13.2417 11.1937 13.2417C10.6326 13.2417 10.1778 13.6965 10.1778 14.2576C10.1778 14.8186 10.6326 15.2734 11.1937 15.2734Z" fill="#6D6E73"/>
<path d="M14.6359 15.2734C15.197 15.2734 15.6518 14.8186 15.6518 14.2576C15.6518 13.6965 15.197 13.2417 14.6359 13.2417C14.0749 13.2417 13.6201 13.6965 13.6201 14.2576C13.6201 14.8186 14.0749 15.2734 14.6359 15.2734Z" fill="#6D6E73"/>
<path d="M18.7278 11.0967V17.1073C18.7278 17.8127 18.1634 18.3771 17.4579 18.3771H11.9271L8.23041 21.2272V18.4053H4.70307C3.99761 18.4053 3.43323 17.8409 3.43323 17.1355V11.0967H2.24805V17.1073C2.24805 18.4618 3.34858 19.5623 4.73129 19.5623H7.04522L7.07344 23.7387L12.4068 19.5623H17.4861C18.8406 19.5623 19.9694 18.4618 19.9694 17.1073V11.0967H18.7278Z" fill="#6D6E73"/>
<path d="M20.4776 12.0563H16.5834C15.7369 12.0563 15.0314 11.3509 15.0314 10.5043V8.75473C11.8991 8.27501 10.2624 8.27501 7.15839 8.75473V10.5043C7.15839 11.3509 6.45293 12.0563 5.60636 12.0563H1.71218C0.865624 12.0563 0.160156 11.3509 0.160156 10.5043V8.81117C0.160156 6.63833 1.62753 4.74768 3.68749 4.21152C9.02083 2.80059 13.1408 2.80059 18.4741 4.21152C20.5623 4.74768 22.0014 6.66655 22.0014 8.81117V10.5043C22.0014 11.3791 21.3242 12.0563 20.4776 12.0563ZM11.8427 7.2027C13.6487 7.2027 13.9309 7.3438 15.7087 7.6542L16.2166 7.73886V10.5043C16.2166 10.7018 16.3859 10.8429 16.5552 10.8429H20.4494C20.6469 10.8429 20.788 10.6736 20.788 10.5043V8.81117C20.788 7.2027 19.6875 5.76355 18.1355 5.36849C12.9997 4.01399 9.10548 4.01399 3.96968 5.36849C2.41765 5.79177 1.31712 7.2027 1.31712 8.81117V10.5043C1.31712 10.7018 1.48643 10.8429 1.65575 10.8429H5.54993C5.74746 10.8429 5.88855 10.6736 5.88855 10.5043V7.73886L6.39649 7.6542C8.2307 7.37201 10.0367 7.2027 11.8427 7.2027Z" fill="#F8920A"/>
<path d="M23.497 6.35611H22.3683C22.3683 4.91696 21.1831 3.73178 19.7439 3.73178V2.60303C21.8321 2.63125 23.497 4.29615 23.497 6.35611Z" fill="#6D6E73"/>
<path d="M25.8395 6.29966H24.7107C24.7107 3.56244 22.4815 1.36139 19.7725 1.36139V0.232638C23.1023 0.204419 25.8395 2.94163 25.8395 6.29966Z" fill="#6D6E73"/>
</svg>
