<svg width="16" height="17" viewBox="0 0 16 17" fill="none" xmlns="http://www.w3.org/2000/svg">
<path d="M1.37995 1.39825C1.7411 0.973009 2.16694 0.866699 2.43031 0.866699H2.44785C2.70376 0.866694 2.95832 0.866689 3.18189 0.876666C3.46261 0.888573 3.77409 0.904971 4.069 1.61086C4.41912 2.45113 5.18484 4.54765 5.28262 4.76027C5.3804 4.97289 5.4474 5.22208 5.3165 5.50443C5.18561 5.78679 5.11779 5.96372 4.92223 6.21206C4.7251 6.46039 4.51054 6.76571 4.3339 6.95622C4.13677 7.16714 3.92965 7.39977 4.15833 7.8233C4.38859 8.24854 5.17819 9.63577 6.34839 10.7601C7.85293 12.2059 9.12061 12.6553 9.51488 12.8697C9.90915 13.0823 10.1379 13.0441 10.3681 12.76C10.5984 12.4777 11.3507 11.5242 11.6125 11.099C11.8743 10.6737 12.1385 10.7452 12.4996 10.8863C12.8608 11.0275 14.796 12.0524 15.1887 12.265C15.583 12.4776 15.8456 12.5831 15.9434 12.76C16.0411 12.9352 16.0404 13.7883 15.7123 14.7799C15.3843 15.7716 13.7764 16.7267 13.0541 16.7965C12.3318 16.8679 11.6566 17.1468 8.33206 15.7334C4.331 14.0324 1.80345 9.6106 1.60789 9.32824L1.60405 9.32272C1.39319 9.01896 0 7.01206 0 4.93635C0 2.84758 1.0188 1.82178 1.37995 1.39825Z" fill="white"/>
</svg>
