<svg width="24" height="24" viewBox="0 0 24 24" fill="none" xmlns="http://www.w3.org/2000/svg">
<path fill-rule="evenodd" clip-rule="evenodd" d="M4.90476 13C4.90476 8.52912 8.52912 4.90476 13 4.90476C17.4709 4.90476 21.0952 8.52912 21.0952 13C21.0952 17.4709 17.4709 21.0952 13 21.0952C12.0206 21.0952 11.0818 20.9213 10.2128 20.6027C10.7602 19.1294 11.2967 17.6521 11.8111 16.1671C12.3581 16.557 13.0636 16.8095 13.9524 16.8095C15.7952 16.8095 17.738 15.595 18.2196 13.1868C18.8243 10.1633 16.4027 7.28571 13 7.28571C11.5688 7.28571 10.1608 7.86067 9.1076 8.77374C8.05222 9.68868 7.28571 11.0065 7.28571 12.5238C7.28571 13.2615 7.50851 14.0836 8.03951 14.6245C8.40673 14.9923 9.01988 14.9936 9.38772 14.6258C9.75256 14.261 9.75951 13.6737 9.40856 13.3005C8.66014 12.3665 9.64621 10.8277 10.3553 10.213C11.0913 9.57491 12.0643 9.19048 13 9.19048C15.3116 9.19048 16.6995 11.0748 16.3518 12.8132C16.0633 14.2555 14.9667 14.9048 13.9524 14.9048C13.1734 14.9048 12.7539 14.5759 12.4856 14.1505C12.6321 13.6892 12.7575 13.2703 12.8464 12.9298C13.0296 12.2272 13.1403 11.3811 12.5085 10.8547C12.0389 10.4633 11.4845 10.5501 11.1455 10.7196C10.5156 11.0346 10.1429 11.7713 10.1429 12.5238C10.1429 12.9442 10.2083 13.5955 10.4445 14.2681C9.83642 16.1029 9.17694 17.921 8.50404 19.733C6.33376 18.2809 4.90476 15.8073 4.90476 13ZM13 3C7.47715 3 3 7.47715 3 13C3 18.5229 7.47715 23 13 23C18.5229 23 23 18.5229 23 13C23 7.47715 18.5229 3 13 3Z" fill="#26272B"/>
</svg>
