<svg width="37" height="37" viewBox="0 0 37 37" fill="none" xmlns="http://www.w3.org/2000/svg">
<mask id="mask0_723_3494" style="mask-type:alpha" maskUnits="userSpaceOnUse" x="0" y="0" width="37" height="37">
<rect width="37" height="37" fill="#D9D9D9"/>
</mask>
<g mask="url(#mask0_723_3494)">
<path d="M14.6458 25.4372L25.4374 18.4997L14.6458 11.5622V25.4372ZM18.4999 33.9163C16.3673 33.9163 14.3631 33.5117 12.4874 32.7023C10.6117 31.8929 8.98013 30.7945 7.59263 29.407C6.20513 28.0195 5.10669 26.3879 4.29731 24.5122C3.48794 22.6365 3.08325 20.6323 3.08325 18.4997C3.08325 16.367 3.48794 14.3629 4.29731 12.4872C5.10669 10.6115 6.20513 8.97988 7.59263 7.59238C8.98013 6.20488 10.6117 5.10645 12.4874 4.29707C14.3631 3.4877 16.3673 3.08301 18.4999 3.08301C20.6326 3.08301 22.6367 3.4877 24.5124 4.29707C26.3881 5.10645 28.0197 6.20488 29.4072 7.59238C30.7947 8.97988 31.8931 10.6115 32.7025 12.4872C33.5119 14.3629 33.9166 16.367 33.9166 18.4997C33.9166 20.6323 33.5119 22.6365 32.7025 24.5122C31.8931 26.3879 30.7947 28.0195 29.4072 29.407C28.0197 30.7945 26.3881 31.8929 24.5124 32.7023C22.6367 33.5117 20.6326 33.9163 18.4999 33.9163ZM18.4999 30.833C21.943 30.833 24.8593 29.6382 27.2489 27.2486C29.6385 24.8591 30.8333 21.9427 30.8333 18.4997C30.8333 15.0566 29.6385 12.1403 27.2489 9.75072C24.8593 7.36113 21.943 6.16634 18.4999 6.16634C15.0569 6.16634 12.1405 7.36113 9.75096 9.75072C7.36138 12.1403 6.16659 15.0566 6.16659 18.4997C6.16659 21.9427 7.36138 24.8591 9.75096 27.2486C12.1405 29.6382 15.0569 30.833 18.4999 30.833Z" fill="white"/>
</g>
</svg>
