<svg width="135" height="135" viewBox="0 0 135 135" fill="none" xmlns="http://www.w3.org/2000/svg">
<mask id="mask0_508_10608" style="mask-type:alpha" maskUnits="userSpaceOnUse" x="0" y="0" width="135" height="135">
<rect width="135" height="135" fill="#D9D9D9"/>
</mask>
<g mask="url(#mask0_508_10608)">
<path d="M53.4375 92.8125L92.8125 67.5L53.4375 42.1875V92.8125ZM67.5 123.75C59.7188 123.75 52.4062 122.273 45.5625 119.32C38.7188 116.367 32.7656 112.359 27.7031 107.297C22.6406 102.234 18.6328 96.2812 15.6797 89.4375C12.7266 82.5938 11.25 75.2812 11.25 67.5C11.25 59.7188 12.7266 52.4062 15.6797 45.5625C18.6328 38.7188 22.6406 32.7656 27.7031 27.7031C32.7656 22.6406 38.7188 18.6328 45.5625 15.6797C52.4062 12.7266 59.7188 11.25 67.5 11.25C75.2812 11.25 82.5938 12.7266 89.4375 15.6797C96.2812 18.6328 102.234 22.6406 107.297 27.7031C112.359 32.7656 116.367 38.7188 119.32 45.5625C122.273 52.4062 123.75 59.7188 123.75 67.5C123.75 75.2812 122.273 82.5938 119.32 89.4375C116.367 96.2812 112.359 102.234 107.297 107.297C102.234 112.359 96.2812 116.367 89.4375 119.32C82.5938 122.273 75.2812 123.75 67.5 123.75ZM67.5 112.5C80.0625 112.5 90.7031 108.141 99.4219 99.4219C108.141 90.7031 112.5 80.0625 112.5 67.5C112.5 54.9375 108.141 44.2969 99.4219 35.5781C90.7031 26.8594 80.0625 22.5 67.5 22.5C54.9375 22.5 44.2969 26.8594 35.5781 35.5781C26.8594 44.2969 22.5 54.9375 22.5 67.5C22.5 80.0625 26.8594 90.7031 35.5781 99.4219C44.2969 108.141 54.9375 112.5 67.5 112.5Z" fill="white"/>
</g>
</svg>
