<svg width="20" height="21" viewBox="0 0 20 21" fill="none" xmlns="http://www.w3.org/2000/svg">
<path d="M10.0127 0.0666504C4.50616 0.0666504 0.0234867 4.54503 0.0214865 10.051C0.0204864 11.811 0.481516 13.5292 1.3556 15.0432L0 20.0667L5.23293 18.8303C6.69207 19.6263 8.33467 20.0442 10.0068 20.0452H10.0107C15.5163 20.0452 19.997 15.5658 20 10.0608C20.002 7.39179 18.964 4.88238 17.0778 2.99438C15.1917 1.10738 12.685 0.0676504 10.0127 0.0666504ZM10.0107 2.06665C12.1469 2.06765 14.1545 2.90045 15.6636 4.40845C17.1728 5.91845 18.0018 7.92484 17.9998 10.0588C17.9978 14.4628 14.4152 18.0452 10.0088 18.0452C8.67566 18.0442 7.35512 17.7095 6.19201 17.0745L5.51812 16.7073L4.7739 16.8831L2.80496 17.3479L3.28548 15.5627L3.50229 14.762L3.08819 14.0432C2.39012 12.8352 2.02068 11.454 2.02168 10.051C2.02368 5.64903 5.60731 2.06665 10.0107 2.06665ZM6.47719 5.44165C6.31018 5.44165 6.04014 5.50415 5.81111 5.75415C5.58209 6.00315 4.93603 6.60623 4.93603 7.83423C4.93603 9.06223 5.83065 10.2493 5.95566 10.4163C6.07967 10.5823 7.6825 13.1819 10.2197 14.1819C12.328 15.0129 12.7561 14.8489 13.2142 14.8069C13.6722 14.7659 14.6919 14.2043 14.8999 13.6213C15.1079 13.0383 15.1084 12.5368 15.0464 12.4338C14.9844 12.3298 14.8179 12.2678 14.5678 12.1428C14.3188 12.0178 13.0916 11.4153 12.8626 11.3323C12.6336 11.2493 12.466 11.2073 12.3 11.4573C12.134 11.7073 11.6569 12.2678 11.5109 12.4338C11.3649 12.6008 11.2198 12.6233 10.9698 12.4983C10.7198 12.3723 9.91591 12.1081 8.96181 11.2581C8.21974 10.5971 7.71902 9.78149 7.573 9.53149C7.42799 9.28249 7.55933 9.14573 7.68434 9.02173C7.79635 8.90973 7.93241 8.73023 8.05743 8.58423C8.18144 8.43823 8.22444 8.33421 8.30745 8.16821C8.39046 8.00221 8.34797 7.85571 8.28596 7.73071C8.22396 7.60571 7.73838 6.37315 7.51636 5.87915C7.32934 5.46415 7.13182 5.45451 6.9538 5.44751C6.80879 5.44151 6.64321 5.44165 6.47719 5.44165Z" fill="white"/>
</svg>
